<svg xmlns="http://www.w3.org/2000/svg" viewBox="0 0 1672 941" role="img" aria-label="ピンクとブルーの光に照らされたサイバーパンク風の書棚">
  <defs>
    <linearGradient id="bg" x1="0" y1="0" x2="1" y2="1">
      <stop offset="0" stop-color="#020611"/>
      <stop offset="0.45" stop-color="#061326"/>
      <stop offset="1" stop-color="#1a0524"/>
    </linearGradient>
    <radialGradient id="pink" cx="72%" cy="28%" r="56%">
      <stop stop-color="#ff42d1" stop-opacity="0.92"/>
      <stop offset="0.35" stop-color="#ff42d1" stop-opacity="0.24"/>
      <stop offset="1" stop-color="#ff42d1" stop-opacity="0"/>
    </radialGradient>
    <radialGradient id="blue" cx="24%" cy="72%" r="62%">
      <stop stop-color="#1da8ff" stop-opacity="0.82"/>
      <stop offset="0.45" stop-color="#1da8ff" stop-opacity="0.18"/>
      <stop offset="1" stop-color="#1da8ff" stop-opacity="0"/>
    </radialGradient>
    <filter id="glow" x="-50%" y="-50%" width="200%" height="200%">
      <feGaussianBlur stdDeviation="4" result="b"/>
      <feMerge><feMergeNode in="b"/><feMergeNode in="SourceGraphic"/></feMerge>
    </filter>
  </defs>
  <rect width="1672" height="941" fill="url(#bg)"/>
  <rect width="1672" height="941" fill="url(#blue)"/>
  <rect width="1672" height="941" fill="url(#pink)"/>
  <g opacity="0.22" stroke="#4bbcff" stroke-width="1" fill="none">
    <path d="M0 770 C250 620 420 860 650 690 S980 520 1672 260"/>
    <path d="M40 150 L160 235 L280 190 L370 270 L500 220"/>
    <circle cx="160" cy="235" r="4" fill="#4bbcff"/><circle cx="370" cy="270" r="4" fill="#4bbcff"/><circle cx="500" cy="220" r="4" fill="#ff42d1"/>
  </g>
  <g transform="translate(560 30)">
    <g fill="rgba(0,0,0,0.42)" stroke="#2467a8" stroke-opacity="0.46">
      <rect x="0" y="0" width="820" height="850" rx="4"/>
      <rect x="40" y="50" width="300" height="760"/>
      <rect x="370" y="50" width="410" height="760"/>
    </g>
    <g stroke="#0e4e92" stroke-opacity="0.55">
      <path d="M40 180H780M40 315H780M40 450H780M40 585H780M40 720H780"/>
    </g>
    <g fill="#121b34" stroke="#2c5f9e" stroke-opacity="0.8">
      <script type="application/ecmascript"><![CDATA[]]></script>
      <rect x="68" y="80" width="24" height="96"/><rect x="98" y="74" width="22" height="102"/><rect x="126" y="86" width="28" height="90"/><rect x="160" y="70" width="21" height="106"/><rect x="190" y="78" width="30" height="98"/><rect x="230" y="82" width="26" height="94"/><rect x="265" y="76" width="32" height="100"/>
      <rect x="410" y="80" width="27" height="96"/><rect x="446" y="72" width="23" height="104"/><rect x="478" y="88" width="34" height="88"/><rect x="523" y="70" width="25" height="106"/><rect x="558" y="84" width="31" height="92"/><rect x="598" y="78" width="28" height="98"/><rect x="636" y="76" width="36" height="100"/><rect x="684" y="82" width="26" height="94"/>
      <rect x="68" y="210" width="28" height="100"/><rect x="106" y="205" width="24" height="105"/><rect x="140" y="218" width="33" height="92"/><rect x="184" y="203" width="23" height="107"/><rect x="218" y="212" width="34" height="98"/><rect x="262" y="206" width="29" height="104"/>
      <rect x="410" y="214" width="25" height="96"/><rect x="445" y="202" width="30" height="108"/><rect x="485" y="210" width="28" height="100"/><rect x="522" y="198" width="36" height="112"/><rect x="570" y="214" width="28" height="96"/><rect x="610" y="204" width="33" height="106"/><rect x="652" y="207" width="31" height="103"/><rect x="692" y="215" width="29" height="95"/>
      <rect x="70" y="345" width="32" height="100"/><rect x="112" y="337" width="22" height="108"/><rect x="145" y="352" width="29" height="93"/><rect x="184" y="340" width="31" height="105"/><rect x="226" y="348" width="27" height="97"/><rect x="264" y="338" width="33" height="107"/>
      <rect x="410" y="346" width="35" height="99"/><rect x="455" y="334" width="25" height="111"/><rect x="490" y="350" width="30" height="95"/><rect x="530" y="340" width="27" height="105"/><rect x="566" y="344" width="38" height="101"/><rect x="614" y="338" width="31" height="107"/><rect x="655" y="348" width="30" height="97"/><rect x="694" y="342" width="34" height="103"/>
      <rect x="70" y="485" width="28" height="96"/><rect x="108" y="475" width="33" height="106"/><rect x="151" y="488" width="25" height="93"/><rect x="187" y="478" width="30" height="103"/><rect x="228" y="482" width="29" height="99"/><rect x="267" y="474" width="30" height="107"/>
      <rect x="410" y="482" width="26" height="99"/><rect x="446" y="472" width="35" height="109"/><rect x="490" y="484" width="28" height="97"/><rect x="528" y="476" width="33" height="105"/><rect x="570" y="480" width="30" height="101"/><rect x="610" y="470" width="39" height="111"/><rect x="660" y="486" width="27" height="95"/><rect x="696" y="476" width="33" height="105"/>
      <rect x="70" y="625" width="30" height="90"/><rect x="110" y="618" width="28" height="97"/><rect x="148" y="630" width="34" height="85"/><rect x="192" y="615" width="23" height="100"/><rect x="224" y="624" width="36" height="91"/><rect x="270" y="618" width="27" height="97"/>
      <rect x="410" y="622" width="31" height="93"/><rect x="451" y="612" width="27" height="103"/><rect x="488" y="625" width="36" height="90"/><rect x="534" y="616" width="24" height="99"/><rect x="568" y="620" width="39" height="95"/><rect x="617" y="610" width="31" height="105"/><rect x="658" y="624" width="35" height="91"/><rect x="703" y="616" width="29" height="99"/>
    </g>
    <g opacity="0.86" stroke="#ff4fd8" stroke-width="2" filter="url(#glow)">
      <path d="M640 50c60 80 56 190 0 260s-58 170 0 250" fill="none"/>
      <path d="M38 610c60-70 150-70 230 0" fill="none"/>
      <circle cx="650" cy="150" r="58" fill="none"/><circle cx="650" cy="150" r="95" fill="none" opacity="0.45"/><circle cx="650" cy="150" r="7" fill="#ff4fd8"/>
    </g>
  </g>
  <g opacity="0.42" stroke="#1aa8ff" stroke-width="2" filter="url(#glow)">
    <path d="M100 820h320M120 785h180M70 720h260"/>
    <circle cx="360" cy="730" r="4" fill="#1aa8ff"/><circle cx="290" cy="780" r="3" fill="#ff4fd8"/><circle cx="430" cy="820" r="5" fill="#1aa8ff"/>
  </g>
  <rect width="1672" height="941" fill="url(#blue)" opacity="0.12"/>
  <rect width="1672" height="941" fill="none" stroke="#ff4fd8" stroke-opacity="0.08" stroke-width="2"/>
</svg>
