<svg xmlns="http://www.w3.org/2000/svg" viewBox="0 0 420 240"><defs><radialGradient id="b" cx="62%" cy="47%" r="52%"><stop stop-color="#2dd4ff" stop-opacity=".9"/><stop offset=".48" stop-color="#2dd4ff" stop-opacity=".2"/><stop offset="1" stop-opacity="0"/></radialGradient><radialGradient id="v" cx="42%" cy="78%" r="42%"><stop stop-color="#8f52ff" stop-opacity=".85"/><stop offset="1" stop-opacity="0"/></radialGradient></defs><rect width="420" height="240" fill="#061011"/><rect width="420" height="240" fill="url(#b)"/><rect width="420" height="240" fill="url(#v)"/><g fill="none" stroke="#bdfcff" stroke-opacity=".58" stroke-width="2"><path d="M212 64c-44 4-70 35-66 74 4 42 45 66 88 48 20-8 34-26 39-48 5-26-6-54-31-66-8-4-17-7-30-8z"/><path d="M164 115c26-18 58-18 90 4M182 82c8 18 10 38 2 62M220 73c-8 30-4 54 14 84"/><path d="M148 142c-22 2-43 11-68 28M275 130c22-4 46 2 72 18"/></g><circle cx="292" cy="190" r="6" fill="#8f52ff"/><path d="M292 190L344 142" stroke="#8f52ff" stroke-width="2"/></svg>