<svg xmlns="http://www.w3.org/2000/svg" viewBox="0 0 1200 360"><defs><linearGradient id="g" x1="0" y1="0" x2="1" y2="1"><stop stop-color="#071011"/><stop offset=".5" stop-color="#041615"/><stop offset="1" stop-color="#170723"/></linearGradient><radialGradient id="r" cx="70%" cy="45%" r="55%"><stop stop-color="#43f5a8" stop-opacity=".85"/><stop offset=".42" stop-color="#43f5a8" stop-opacity=".18"/><stop offset="1" stop-color="#43f5a8" stop-opacity="0"/></radialGradient><radialGradient id="v" cx="78%" cy="62%" r="42%"><stop stop-color="#8f52ff" stop-opacity=".8"/><stop offset="1" stop-color="#8f52ff" stop-opacity="0"/></radialGradient></defs><rect width="1200" height="360" fill="url(#g)"/><rect width="1200" height="360" fill="url(#r)"/><rect width="1200" height="360" fill="url(#v)"/><g opacity=".42" stroke="#43f5a8" stroke-width="1"><path d="M60 310 C230 150 380 370 540 150 S900 120 1130 40" fill="none"/><path d="M80 70h240M80 110h170M870 250h240M940 286h120"/><circle cx="320" cy="190" r="3" fill="#43f5a8"/><circle cx="760" cy="120" r="4" fill="#8f52ff"/><circle cx="960" cy="205" r="3" fill="#43f5a8"/></g><g transform="translate(580 185)" fill="none" stroke="#f5f4ee" stroke-opacity=".72"><path d="M-210 70c70-38 140-38 210 0c70-38 140-38 210 0" stroke-width="5"/><path d="M-210 70V8c68-35 138-35 210 0v62M0 70V8c68-35 138-35 210 0v62" stroke-width="3"/><path d="M-175 35c45-18 92-18 140 0M35 35c45-18 92-18 140 0" stroke-width="2" opacity=".65"/></g></svg>